<svg xmlns="http://www.w3.org/2000/svg" width="1280" height="640" viewBox="0 0 1280 640" role="img" aria-labelledby="title desc">
  <title id="title">Attention Router — Policy-aware Agent Runtime</title>
  <desc id="desc">Human-controlled, auditable, provider-agnostic agent flow.</desc>
  <rect width="1280" height="640" fill="#0b1220"/>
  <circle cx="1080" cy="90" r="260" fill="#12345b" opacity=".45"/>
  <circle cx="1160" cy="590" r="300" fill="#154f52" opacity=".32"/>
  <text x="82" y="105" fill="#73e6d1" font-family="Arial, sans-serif" font-size="24" font-weight="700" letter-spacing="4">PUBLIC PRERELEASE · V0.1.0</text>
  <text x="80" y="195" fill="#f4f7fb" font-family="Arial, sans-serif" font-size="66" font-weight="700">Attention Router / Andy</text>
  <text x="84" y="248" fill="#a9bdd4" font-family="Arial, sans-serif" font-size="30">Policy-aware Agent Runtime</text>
  <text x="84" y="315" fill="#dce8f4" font-family="Arial, sans-serif" font-size="22">Human-controlled  ·  Auditable  ·  Provider-agnostic</text>
  <g font-family="Arial, sans-serif" font-size="18" font-weight="700" text-anchor="middle">
    <g fill="#12243a" stroke="#73e6d1" stroke-width="2">
      <rect x="80" y="430" width="130" height="58" rx="29"/><rect x="245" y="430" width="130" height="58" rx="29"/>
      <rect x="410" y="430" width="130" height="58" rx="29"/><rect x="575" y="430" width="130" height="58" rx="29"/>
      <rect x="740" y="430" width="160" height="58" rx="29"/><rect x="935" y="430" width="130" height="58" rx="29"/>
      <rect x="1100" y="430" width="130" height="58" rx="29"/>
    </g>
    <g fill="#f4f7fb">
      <text x="145" y="466">Inbound</text><text x="310" y="466">Context</text><text x="475" y="466">Agent</text>
      <text x="640" y="466">Policy</text><text x="820" y="466">Human Control</text><text x="1000" y="466">Execution</text><text x="1165" y="466">Delivery</text>
    </g>
  </g>
  <g stroke="#73e6d1" stroke-width="3" fill="none"><path d="M210 459h35m130 0h35m130 0h35m130 0h35m160 0h35m130 0h35"/><path d="m237 450 10 9-10 9m165 0 10-9-10-9m165 0 10 9-10 9m165 0 10-9-10-9m195 0 10 9-10 9m165 0 10-9-10-9"/></g>
  <text x="84" y="575" fill="#6e85a0" font-family="Arial, sans-serif" font-size="18">Deterministic boundaries for accountable automation</text>
</svg>
